# xmcd CD database file
#
# Track frame offsets:
#	150
#	22200
#	38532
#	76277
#
# Disc length: 1308 seconds
#
# Revision: 0
# Processed by: cddbd v1.5.1PL0 Copyright (c) Steve Scherf et al.
# Submitted via: CDex 1.51
#
DISCID=25051a04
DTITLE=Organs cafe - カカリア
DYEAR=1900
DGENRE=JPop
TTITLE0=カカリア
TTITLE1=晴れ。〜時々は下り坂〜
TTITLE2=カカリア〜All That Jazz Mix〜
TTITLE3=カカリア(less vocal)
EXTD=
EXTT0=
EXTT1=
EXTT2=
EXTT3=
PLAYORDER=
